<?xml version="1.0" encoding="UTF-8" standalone="no"?>
<!-- Created with Inkscape (http://www.inkscape.org/) -->

<svg
   version="1.1"
   id="svg1"
   width="369.33334"
   height="374.66666"
   viewBox="0 0 369.33334 374.66666"
   sodipodi:docname="SmoothCurves.svg"
   inkscape:version="1.4.2 (ebf0e940, 2025-05-08)"
   xmlns:inkscape="http://www.inkscape.org/namespaces/inkscape"
   xmlns:sodipodi="http://sodipodi.sourceforge.net/DTD/sodipodi-0.dtd"
   xmlns="http://www.w3.org/2000/svg"
   xmlns:svg="http://www.w3.org/2000/svg">
  <defs
     id="defs1" />
  <sodipodi:namedview
     id="namedview1"
     pagecolor="#ffffff"
     bordercolor="#000000"
     borderopacity="0.25"
     inkscape:showpageshadow="2"
     inkscape:pageopacity="0.0"
     inkscape:pagecheckerboard="0"
     inkscape:deskcolor="#d1d1d1"
     inkscape:zoom="0.62617591"
     inkscape:cx="177.26648"
     inkscape:cy="210.80338"
     inkscape:window-width="896"
     inkscape:window-height="665"
     inkscape:window-x="0"
     inkscape:window-y="25"
     inkscape:window-maximized="0"
     inkscape:current-layer="g1" />
  <g
     inkscape:groupmode="layer"
     inkscape:label="Image"
     id="g1">
    <g
       id="g2">
      <path
         style="fill:#eeddcd"
         d="M 0,187.33333 V 0 H 184.66667 369.33334 V 187.33333 374.66666 H 184.66667 0 Z"
         id="path3" />
      <path
         style="fill:#fd98be"
         d="m 0,360.92866 v -12.40465 l 1.1666667,0.47211 1.1666667,0.47211 13.0000006,0.54415 13,0.54416 2.038947,0.63856 2.038946,0.63856 2.067722,1.06926 2.067721,1.06926 2.054763,2.49278 2.054763,2.49278 0.959809,3.02113 0.959809,3.02112 0.452557,3.58171 0.452558,3.58172 -0.907131,0.57474 -0.90713,0.57475 -20.833334,0.0102 L 0,373.33332 Z m 90.944946,11.89445 -0.721722,-0.48979 -0.806303,-4.96478 -0.806302,-4.96478 -1.805308,-3.36855 -1.805309,-3.36855 -3.129983,-2.09184 -3.129982,-2.09185 -4.25796,-0.74149 -4.257959,-0.74149 h -8.322952 -8.322952 l -3.934623,-0.72735 -3.934624,-0.72736 -2.354483,-1.21159 -2.354483,-1.21159 -1.79759,-1.89439 -1.797591,-1.89439 -1.528115,-3.33333 -1.528116,-3.33333 v -9 -9 l 1.528116,-3.33334 1.528115,-3.33333 1.797591,-1.89285 1.79759,-1.89285 1.961054,-1.02365 1.961053,-1.02365 2.038947,-0.64262 2.038946,-0.64262 13.000001,-0.53419 13,-0.53419 2.95422,-1.08643 2.95422,-1.08644 2.062862,-1.57342 2.062863,-1.57342 1.812016,-3.32927 1.812016,-3.32927 0.791407,-5.09054 0.791408,-5.09053 -0.750678,-5.61051 -0.750678,-5.6105 -1.693444,-3.34185 -1.693443,-3.34185 -2.222165,-1.69493 -2.222164,-1.69493 -2.95422,-1.08643 -2.95422,-1.08644 -13,-0.53419 -13.000001,-0.53419 -2.038946,-0.64262 -2.038947,-0.64262 -1.961053,-1.02365 -1.961054,-1.02364 -1.757226,-1.89286 -1.757225,-1.89285 -0.986648,-2 -0.986648,-2 -0.846738,-3.60053 -0.846738,-3.60053 0.346833,-6.79567 0.346832,-6.79566 1.446189,-3.27047 1.446188,-3.27047 1.797591,-1.89285 1.79759,-1.89285 1.961054,-1.02365 1.961053,-1.02365 2.038947,-0.64262 2.038946,-0.64262 13.000001,-0.54045 13,-0.54045 3.225573,-1.14983 3.225572,-1.14984 2.512808,-2.41726 2.512808,-2.41726 1.425186,-3.85006 1.425186,-3.85005 0.415169,-4.48328 0.41517,-4.48328 -0.759072,-4.88247 -0.759072,-4.88247 -1.643279,-3.24286 -1.64328,-3.24285 -2.222165,-1.69493 -2.222164,-1.69493 -2.95422,-1.08643 -2.95422,-1.08644 -13,-0.53419 -13.000001,-0.53419 -2.038946,-0.64262 -2.038947,-0.64262 -1.961053,-1.02365 -1.961054,-1.02365 -1.79759,-1.89285 -1.797591,-1.89285 -1.535743,-3.33333 L 34.333334,149 l 0.0122,-9 0.0122,-9 1.523544,-3.33334 1.523544,-3.33333 1.797591,-1.89285 1.79759,-1.89285 1.961054,-1.02365 1.961053,-1.02365 2.038947,-0.63856 2.038946,-0.63856 13.000001,-0.5571 13,-0.5571 3.225573,-1.13725 3.225572,-1.13724 2.512808,-2.41726 2.512808,-2.41726 1.425186,-3.85006 1.425186,-3.85005 0.415169,-4.483281 0.41517,-4.483278 -0.759072,-4.882472 -0.759072,-4.882471 -1.643279,-3.242855 -1.64328,-3.242856 -2.222165,-1.694927 -2.222164,-1.694928 -2.95422,-1.069614 -2.95422,-1.069615 -13,-0.56753 -13.000001,-0.567531 -2.038946,-0.6261 -2.038947,-0.6261 -1.961053,-1.023649 -1.961054,-1.02365 -1.757226,-1.89285 -1.757225,-1.892851 -0.986648,-2 -0.986648,-2 -0.846738,-3.600533 -0.846738,-3.600532 0.346833,-6.795667 0.346832,-6.795666 1.446189,-3.270468 1.446188,-3.270467 1.797591,-1.892851 1.79759,-1.892851 1.961054,-1.023649 1.961053,-1.023649 2.038947,-0.638558 2.038946,-0.638558 13.000001,-0.557102 13,-0.557101 3.225573,-1.137246 3.225572,-1.137247 2.512808,-2.41726 2.512808,-2.417261 L 87.826407,12 89.17605,8.3333331 89.653484,4.1666666 90.130918,0 h 23.225962 23.22596 l -0.26446,2.1666666 -0.26446,2.1666666 -0.34697,3.1625467 -0.34698,3.1625471 -1.67026,3.296113 -1.67027,3.296114 -2.22217,1.694927 -2.22216,1.694928 -2.95422,1.086435 -2.95422,1.086435 -13,0.53419 -13.000001,0.53419 -2.038946,0.64262 -2.038947,0.64262 -1.961053,1.023649 -1.961054,1.023649 -1.79759,1.892851 -1.797591,1.892851 -1.480466,3.333333 -1.480465,3.333334 -0.306939,6.779542 -0.306939,6.779542 1.144411,4.669873 1.144412,4.669874 2.340829,2.734732 2.34083,2.734733 2.060808,1.065685 2.060807,1.065685 2.038947,0.64262 2.038946,0.64262 13.000001,0.53419 13,0.53419 2.95422,1.086435 2.95422,1.086435 2.1607,1.64805 2.16071,1.64805 1.88507,3.838871 1.88508,3.838871 0.22414,8.666667 0.22413,8.666669 -1.48575,4 -1.48576,4 -2.51281,2.41726 -2.5128,2.41726 -3.22558,1.14571 -3.22557,1.14572 -13,0.56143 -13.000001,0.56143 -2.411754,0.7159 -2.411754,0.71589 -2.193029,1.49303 -2.193029,1.49303 -1.870462,2.33334 -1.870462,2.33333 -1.103865,4.325 -1.103866,4.325 0.297311,7.00833 0.29731,7.00834 1.48421,3.33333 1.484209,3.33333 1.797591,1.89285 1.79759,1.89285 1.961054,1.02365 1.961053,1.02365 2.038947,0.64262 2.038946,0.64262 13.000001,0.54045 13,0.54045 3.22557,1.14984 3.22558,1.14983 2.5128,2.41726 2.51281,2.41727 1.50202,4 1.50203,4 0.049,6.99999 0.049,7 -1.10529,3.70921 -1.10529,3.7092 -1.94316,2.68245 -1.94316,2.68246 -3.0467,1.43211 -3.04669,1.43212 -2.86094,0.65993 -2.86094,0.65993 -9.04423,0.0163 -9.04423,0.0163 -3.934621,0.72736 -3.934624,0.72735 -2.354483,1.21159 -2.354483,1.21159 -1.79759,1.89439 -1.797591,1.89439 -1.535743,3.33333 -1.535743,3.33334 v 9 9 l 1.535743,3.33333 1.535743,3.33333 1.797591,1.89285 1.79759,1.89286 1.961054,1.02364 1.961053,1.02365 2.038947,0.64262 2.038946,0.64262 13.000001,0.54045 13,0.54045 3.26172,1.16216 3.26173,1.16215 2.49507,2.49508 2.49508,2.49507 1.50655,3.90987 1.50656,3.90987 -0.0256,7.66666 -0.0256,7.66667 -1.48093,3.90987 -1.48092,3.90986 -2.49508,2.49508 -2.49507,2.49507 -3.26173,1.16018 -3.26172,1.16017 -13.33333,0.50971 -13.333337,0.5097 -3.412173,1.4695 -3.412173,1.46949 -2.053678,2.12235 -2.053678,2.12235 -1.534149,3.33333 -1.53415,3.33334 v 9 9 L 82.535775,339 l 1.535743,3.33333 1.797591,1.89285 1.79759,1.89286 1.961054,1.02364 1.961053,1.02365 2.038947,0.64262 2.038946,0.64262 13.000001,0.53419 13,0.53419 2.95422,1.08644 2.95422,1.08643 2.06286,1.57343 2.06286,1.57342 1.80529,3.3169 1.80528,3.3169 0.64658,4.5657 0.64659,4.56571 -0.71725,0.86423 -0.71724,0.86422 -21.75171,-0.0102 -21.751701,-0.0102 z m 92.521724,-0.28979 -0.8,-0.8 v -2.76071 -2.76071 l -0.95423,-3.17066 -0.95422,-3.17066 -1.68547,-2.5469 -1.68546,-2.54691 -4.36137,-2.1471 -4.36137,-2.14709 -13.16561,-0.51116 -13.1656,-0.51116 -2.66667,-0.80579 -2.66667,-0.80579 -2,-1.37275 -2,-1.37274 -1.48944,-1.71827 -1.48944,-1.71826 -1.34389,-4.23689 -1.34389,-4.23689 v -6.52622 -6.52622 l 1.31025,-4.2421 1.31025,-4.2421 2.85641,-2.80052 2.85642,-2.80052 3,-1.08651 3,-1.08651 13.52721,-0.52964 13.5272,-0.52963 4.3331,-2.13318 4.33311,-2.13318 1.68546,-2.54691 1.68547,-2.54691 0.95422,-3.17066 0.95423,-3.17065 v -7.10638 -7.10638 l -0.99343,-3.34524 -0.99343,-3.34523 -1.91505,-2.64365 -1.91504,-2.64365 -4.20141,-1.88548 -4.20141,-1.88548 -13.05678,-0.52938 -13.05678,-0.52939 -2.63726,-0.78648 -2.63726,-0.78649 -2.32676,-1.58107 -2.32676,-1.58108 -1.81976,-2.70956 -1.81977,-2.70957 -0.71622,-3.33961 -0.71621,-3.3396 v -6.2303 -6.23029 l 1.31169,-4.23689 1.3117,-4.23689 2.01494,-2.20049 2.01495,-2.20048 3.69835,-1.69316 3.69834,-1.69316 13.14168,-0.55485 13.14168,-0.55485 2.15257,-0.66759 2.15257,-0.66759 2.71022,-1.52323 2.71022,-1.52323 1.93697,-2.92429 1.93696,-2.92429 0.77644,-3.46948 0.77643,-3.46947 -0.24564,-7.63359 -0.24564,-7.63358 -1.88084,-3.83591 -1.88084,-3.83591 -2.78304,-1.89169 L 173,165.5448 l -2.33333,-0.83034 -2.33333,-0.83035 -13,-0.55366 -13,-0.55367 -2.03895,-0.63856 -2.03895,-0.63856 -2.21931,-1.14765 -2.21932,-1.14765 -1.65818,-1.76885 -1.65819,-1.76885 -1.3426,-3 -1.3426,-3 -0.32671,-7.54873 -0.3267,-7.54873 1.2034,-4.44573 1.2034,-4.44572 3.38235,-3.35662 3.38236,-3.35662 2.66666,-0.85477 2.66667,-0.85478 13.33333,-0.57478 13.33334,-0.57478 3.10853,-1.09556 3.10853,-1.09556 2.48208,-2.41056 2.48207,-2.41057 1.38692,-3.04658 1.38692,-3.04657 0.25585,-8.099908 0.25586,-8.099906 -1.03789,-3.566761 -1.03788,-3.56676 -1.65946,-2.247336 -1.65945,-2.247336 -2.20271,-1.477484 L 173,72.217025 170.66667,71.385714 168.33334,70.554403 155,69.999998 141.66667,69.445593 139.33334,68.614282 137,67.782971 l -2.29735,-1.541795 -2.29735,-1.541795 -1.83105,-2.726366 -1.83104,-2.726366 -0.78313,-3.772282 -0.78312,-3.772282 0.31914,-7.351043 0.31914,-7.351043 1.38787,-3 1.38787,-3 1.20451,-1.392564 1.20451,-1.392564 2,-1.338801 2,-1.338801 2.33334,-0.831268 2.33333,-0.831268 13,-0.529987 13,-0.529988 3.391,-1.067502 3.39099,-1.067502 2.53295,-2.459966 2.53294,-2.459967 1.35086,-3.046577 1.35085,-3.0465776 0.31288,-4.8333332 L 182.84201,0 h 23.24567 23.24566 v 3.2631098 3.2631099 l -1.31185,4.2472823 -1.31185,4.247282 -2.52149,2.456707 -2.52148,2.456708 -3.33333,1.473313 -3.33333,1.473312 -13.33334,0.502737 -13.33333,0.502736 -3.10853,1.09971 -3.10853,1.09971 -2.48208,2.410564 -2.48208,2.410564 -1.36137,3.046577 -1.36137,3.046577 -0.30182,7.584697 -0.30182,7.584697 0.78738,3.518364 0.78737,3.518365 2.01859,3.04751 2.01859,3.04751 4.27216,2.10318 4.27217,2.103181 13.6504,0.475621 13.6504,0.475622 4.30644,2.120054 4.30644,2.120054 2.01788,3.046446 2.01788,3.046445 0.77914,3.753083 0.77914,3.753084 -0.31914,7.351042 -0.31914,7.351046 -1.36156,3.07226 -1.36156,3.07227 -2.32967,2.26107 -2.32967,2.26106 -3.23449,1.24055 -3.23448,1.24055 -13,0.51987 -13,0.51986 -3.64423,1.22077 -3.64423,1.22077 -2.51957,2.59625 -2.51957,2.59624 -1.3362,4.32613 -1.33621,4.32613 0.008,6.42977 0.008,6.42978 0.94777,3.56073 0.94776,3.56073 1.45208,2.11916 1.45207,2.11917 2.42558,1.74308 2.42558,1.74307 2.66667,0.79834 2.66667,0.79833 13,0.54493 13,0.54493 3.07079,1.0971 3.07079,1.0971 2.18795,2.13666 2.18795,2.13667 0.95726,1.45828 0.95726,1.45827 0.94275,3.54173 0.94275,3.54172 0.008,6.42977 0.008,6.42978 -1.33351,4.31741 -1.33351,4.31741 -2.62384,2.54651 -2.62384,2.54651 -3.20932,1.29186 -3.20931,1.29186 -13,0.50819 -13,0.50819 -3.50301,1.17517 -3.50301,1.17516 -2.39448,2.32549 -2.39448,2.32549 -1.41698,3.07226 -1.41698,3.07227 -0.0189,9.66667 -0.0189,9.66666 1.88507,3.83887 1.88508,3.83888 2.25153,1.71732 2.25153,1.71733 3.19673,1.0072 3.19673,1.0072 13,0.54533 13,0.54532 2.33333,0.82805 2.33333,0.82806 2.42558,1.71666 2.42558,1.71666 1.45208,2.11916 1.45207,2.11917 0.94777,3.56073 0.94776,3.56073 0.008,6.42978 0.008,6.42977 -1.33704,4.32883 -1.33704,4.32884 -2.68687,2.68687 -2.68687,2.68687 -3.14276,1.12162 -3.14275,1.12161 -13,0.5321 -13,0.53209 -3.19673,1.01128 -3.19673,1.01127 -2.25153,1.71733 -2.25153,1.71733 -1.88229,3.83887 -1.8823,3.83887 -0.24564,7.63359 -0.24564,7.63358 0.77644,3.46948 0.77643,3.46947 1.93697,2.92429 1.93697,2.92429 2.71022,1.52323 2.71022,1.52323 2.15257,0.67521 2.15257,0.6752 13,0.53367 13,0.53366 3.24974,1.24055 3.24973,1.24055 2.57989,2.57473 2.57989,2.57472 1.33704,4.32883 1.33704,4.32883 v 2.85845 2.85845 l -1.05453,0.40466 -1.05452,0.40466 h -21.47881 -21.47881 z m 93.46842,0.28979 -0.73158,-0.48979 -0.43135,-4.22875 -0.43135,-4.22875 -1.37122,-3.10458 -1.37121,-3.10458 -2.05368,-2.12236 -2.05368,-2.12235 -3.39972,-1.46252 -3.39972,-1.46252 -13.34579,-0.52288 -13.34578,-0.52289 -2.95422,-1.07199 -2.95422,-1.07198 -2.06287,-1.57343 -2.06286,-1.57342 -1.77964,-3.26979 -1.77965,-3.26979 -0.71214,-5.73086 -0.71214,-5.73087 0.68867,-4.91284 0.68868,-4.91285 1.70527,-3.50553 1.70527,-3.50554 2.1607,-1.64805 2.16071,-1.64805 2.95422,-1.08644 2.95422,-1.08643 13,-0.53419 13,-0.53419 2.03894,-0.64262 2.03895,-0.64262 1.96105,-1.02365 1.96106,-1.02365 1.79759,-1.89285 1.79759,-1.89285 1.53574,-3.33333 1.53574,-3.33334 v -9 -9 l -1.53574,-3.33333 -1.53574,-3.33333 -1.79759,-1.89285 -1.79759,-1.89286 -1.96106,-1.02364 -1.96105,-1.02365 -2.03895,-0.63856 -2.03894,-0.63856 -13,-0.55089 -13,-0.55088 -2.95422,-1.0738 -2.95422,-1.0738 -2.06287,-1.57343 -2.06286,-1.57342 -1.76816,-3.2487 -1.76816,-3.24869 -0.81426,-5.82057 -0.81426,-5.82056 0.78617,-4.84424 0.78618,-4.84424 1.6984,-3.50553 1.69841,-3.50554 2.1607,-1.64805 2.16071,-1.64805 2.95422,-1.08644 2.95422,-1.08643 13,-0.53419 13,-0.53419 2.03894,-0.64262 2.03895,-0.64262 1.96105,-1.02365 1.96106,-1.02365 1.79759,-1.89285 1.79759,-1.89285 1.53574,-3.33334 1.53574,-3.33333 v -9 -9 l -1.53574,-3.33333 -1.53574,-3.33333 -1.79759,-1.89286 -1.79759,-1.89285 -1.96106,-1.02365 -1.96105,-1.02364 -2.03895,-0.63856 -2.03894,-0.63856 -13,-0.55089 -13,-0.55088 -2.95422,-1.0738 -2.95422,-1.0738 -2.29299,-1.74895 -2.29298,-1.74895 -1.55221,-3.40464 -1.55221,-3.40464 -0.7458,-4.66667 -0.7458,-4.66666 0.45698,-4.66667 0.45699,-4.66667 1.33143,-3.57653 1.33143,-3.57654 2.49507,-2.49507 2.49508,-2.49508 3.26172,-1.16215 3.26173,-1.16216 13,-0.54044 13,-0.54045 2.03894,-0.64262 2.03895,-0.64262 1.96105,-1.02365 1.96106,-1.02365 1.79759,-1.89285 1.79759,-1.89285 1.53574,-3.33334 1.53574,-3.33333 v -8.999999 -9 l -1.53574,-3.333333 -1.53574,-3.333333 -1.79759,-1.892851 -1.79759,-1.892851 -1.96106,-1.023649 -1.96105,-1.02365 -2.03895,-0.638558 -2.03894,-0.638558 -13,-0.557101 -13,-0.557102 -3.26173,-1.149564 -3.26172,-1.149564 -2.49508,-2.495075 -2.49507,-2.495075 -1.50698,-3.909867 -1.50698,-3.909868 v -7.666667 -7.666666 l 1.50698,-3.909868 1.50698,-3.909868 2.49507,-2.495074 2.49508,-2.495075 3.26172,-1.162155 3.26173,-1.162155 13,-0.540449 13,-0.540448 2.03894,-0.642621 2.03895,-0.64262 1.96105,-1.023649 1.96106,-1.023649 1.79759,-1.892851 1.79759,-1.892851 1.40964,-3.187843 1.40964,-3.1878423 0.38946,-4.6454903 L 276.19339,0 h 23.33333 23.33334 l -0.38946,4.6454904 -0.38946,4.6454903 -1.40964,3.1878423 -1.40964,3.187843 -1.79759,1.892851 -1.79759,1.892851 -1.96106,1.023649 -1.96105,1.023649 -2.03895,0.638558 -2.03894,0.638558 -13.00001,0.550887 -13,0.550887 -2.95422,1.0738 -2.95422,1.0738 -2.22216,1.694928 -2.22216,1.694928 -1.68537,3.325915 -1.68537,3.325915 -0.72348,5.604573 -0.72348,5.604574 0.75176,5.054453 0.75175,5.054453 1.40682,2.807052 1.40683,2.807051 1.7162,1.831412 1.71621,1.831412 3.71045,1.409661 3.71044,1.409662 13.33334,0.491917 13.33333,0.491918 3.40493,1.474874 3.40493,1.474874 2.34339,2.458801 2.34338,2.458802 1.25169,3.333333 1.25168,3.333334 -0.02,8.666666 -0.02,8.666666 -1.51577,3.33333 -1.51576,3.33334 -1.79759,1.89285 -1.79759,1.89285 -1.96106,1.02365 -1.96105,1.02365 -2.03895,0.64045 -2.03894,0.64045 -12.66667,0.54672 -12.66667,0.54673 -3.49866,1.08842 -3.49866,1.08842 -2.57305,2.47457 -2.57306,2.47457 -1.53501,4 -1.535,4 -0.0284,7.33333 -0.0284,7.33334 1.27627,3.99206 1.27627,3.99206 2.73715,2.73715 2.73714,2.73714 3.28834,1.17335 3.28833,1.17334 13.33334,0.48614 13.33333,0.48613 3.33334,1.4788 3.33333,1.47879 2.12235,2.05368 2.12235,2.05368 1.5252,3.41217 1.52519,3.41217 0.0191,9 0.0191,9 -1.53415,3.33333 -1.53415,3.33334 -2.09819,2.16828 -2.0982,2.16829 -3.70099,1.41007 -3.70098,1.41007 -12.66667,0.53799 -12.66667,0.53799 -3.49866,1.07575 -3.49866,1.07575 -2.57305,2.47457 -2.57306,2.47457 -1.34964,3.66667 -1.34964,3.66666 -0.45588,4 -0.45588,4 0.68941,5.4804 0.6894,5.4804 1.67811,3.3116 1.67812,3.31159 2.22216,1.69493 2.22216,1.69493 2.95422,1.07849 2.95422,1.0785 13,0.53327 13.00001,0.53327 2.03894,0.65148 2.03895,0.65148 1.96105,1.02365 1.96106,1.02364 1.75722,1.89286 1.75723,1.89285 0.98664,2 0.98665,2 0.84674,3.60053 0.84674,3.60053 -0.38741,6.7328 -0.38741,6.7328 -0.83071,2.55099 -0.8307,2.551 -2.51405,2.8561 -2.51404,2.85611 -3.5214,1.51486 -3.52139,1.51486 -13.00372,0.51695 -13.00373,0.51694 -3.56169,1.10525 -3.56169,1.10524 -2.79712,2.79712 -2.79713,2.79712 -1.12722,3.65873 -1.12723,3.65873 -0.42316,4.34194 -0.42317,4.34194 0.77353,4.99139 0.77353,4.9914 1.87153,3.33333 1.87153,3.33333 2.59748,1.83708 2.59748,1.83707 4.66666,0.98468 4.66667,0.98469 8.80052,0.0116 8.80052,0.0116 3.53281,0.74774 3.53282,0.74774 2,0.99504 2,0.99503 1.89439,1.75722 1.89439,1.75723 1.19014,2.33333 1.19014,2.33334 0.7488,3.53281 0.74881,3.53281 v 1.89586 1.89586 l -1.05453,0.40466 -1.05452,0.40466 -21.44548,-0.0102 -21.44548,-0.0102 z m 84.26827,-19.15459 -3.12998,-2.18555 -4.25796,-0.74149 -4.25796,-0.74149 -7.94539,-0.005 -7.94539,-0.005 -4.24718,-0.68916 -4.24718,-0.68915 -2.48261,-1.26653 -2.48261,-1.26654 -2.08579,-2.37558 -2.08578,-2.37558 -1.16267,-3.83036 -1.16267,-3.83036 -0.0218,-7 -0.0217,-7 1.25127,-3.81218 1.25127,-3.81218 2.26483,-2.64595 2.26484,-2.64595 3.81723,-1.4558 3.81722,-1.4558 13,-0.53936 13,-0.53936 2.07375,-0.64019 2.07374,-0.64019 1.59292,-0.82316 1.59293,-0.82317 1.50883,-1.37452 1.50883,-1.37453 0.73361,0.73361 0.73361,0.73361 -0.27663,4.89089 -0.27663,4.89089 -2.06008,3.18303 -2.06007,3.18302 -0.83182,4.40848 -0.83183,4.40848 0.37334,5.76252 0.37334,5.76253 1.35046,3.55411 1.35046,3.55412 1.20229,1.32695 1.20229,1.32695 v 5.37103 5.37102 l -0.66667,0.15425 -0.66667,0.15425 z M 0,279.99999 v -24.80932 l 1.1666667,0.48487 1.1666667,0.48486 13.0000006,0.52734 13,0.52735 2.038947,0.64262 2.038946,0.64262 2.067722,1.06926 2.067721,1.06926 2.054763,2.49278 2.054763,2.49278 1.16728,3.35446 1.167281,3.35446 v 7.66666 7.66667 l -1.167281,3.35445 -1.16728,3.35446 -2.054763,2.49278 -2.054763,2.49279 -2.067721,1.06926 -2.067722,1.06926 -2.038946,0.64262 -2.038947,0.64262 -13,0.52734 -13.0000006,0.52734 -1.1666667,0.48487 L 0,304.80931 Z m 363.31529,-18.35508 -0.88484,-1.06617 -2.00961,-1.0392 -2.0096,-1.03921 -2.03895,-0.63022 -2.03895,-0.63021 -13,-0.53936 -13,-0.53936 -3.70099,-1.41231 -3.70098,-1.41231 -2.13711,-2.20493 -2.1371,-2.20494 -1.4569,-3.96335 -1.45689,-3.96335 -0.0207,-7.66666 -0.0207,-7.66667 1.17148,-3.40619 1.17147,-3.4062 2.32702,-2.7186 2.32702,-2.7186 3.81723,-1.45996 3.81722,-1.45996 13,-0.52279 13,-0.52279 2.07375,-0.6526 2.07374,-0.6526 1.59292,-0.82316 1.59293,-0.82317 1.50883,-1.37453 1.50883,-1.37452 0.73361,0.73361 0.73361,0.73361 -0.26439,4.89089 -0.26439,4.89089 -1.78554,2.66667 -1.78555,2.66667 -1.10697,4.33287 -1.10697,4.33288 0.32781,6.33379 0.3278,6.33379 1.38437,3.57481 1.38437,3.57481 1.20229,1.32695 1.20229,1.32695 v 5.37102 5.37103 l -0.73328,0.24942 -0.73328,0.24942 z M 0,186.66666 v -24.80932 l 1.1666667,0.48487 1.1666667,0.48486 13.0000006,0.50171 13,0.5017 3.817226,1.45997 3.817227,1.45996 2.313256,2.70252 2.313256,2.70252 1.053969,3.08894 1.053969,3.08894 0.392014,5.66667 0.392014,5.66666 -0.745702,4 -0.745702,4 -1.533831,2.99385 -1.533832,2.99384 -2.813769,2.14614 -2.813769,2.14613 -2.483163,0.76082 -2.483163,0.76082 -13,0.51431 -13.0000006,0.51431 -1.1666667,0.48955 L 0,211.47598 Z m 361.74307,-19.37551 -2.59028,-1.945 -2.40973,-0.72772 -2.40972,-0.72771 -13,-0.54493 -13,-0.54493 -3.28833,-1.17122 -3.28834,-1.17123 -2.84488,-2.84488 -2.84489,-2.84489 -1.16571,-3.88432 -1.16571,-3.88432 -0.0215,-7 -0.0215,-7 1.18721,-3.88433 1.18721,-3.88432 2.84489,-2.84489 2.84488,-2.84488 3.28834,-1.1671 3.28833,-1.1671 13,-0.55698 13,-0.55698 2.07375,-0.64019 2.07374,-0.64019 1.59292,-0.82316 1.59293,-0.82317 1.50883,-1.37453 1.50883,-1.37452 0.73361,0.73361 0.73361,0.73361 -0.24713,4.89383 -0.24713,4.89384 -1.50934,2.11967 -1.50935,2.11968 -1.09093,2.87738 -1.09093,2.87738 -0.0617,8 -0.0617,8 1.20772,3.46228 1.20771,3.46228 1.45896,1.85277 1.45895,1.85276 v 5.29107 5.29108 l -0.66667,0.17862 -0.66667,0.17863 z M 0,93.333331 V 68.524013 l 1.1666667,0.484864 1.1666667,0.484864 13.0000006,0.501706 13,0.501707 3.781518,1.446601 3.781518,1.446602 2.30143,2.547407 2.30143,2.547408 1.228611,3.590746 1.228611,3.590746 0.02124,7.666667 0.02124,7.666669 -1.171372,3.35445 -1.171372,3.35446 -2.054763,2.49278 -2.054763,2.49279 -2.067721,1.06926 -2.067722,1.06926 -2.038946,0.63856 -2.038947,0.63855 -13,0.54416 -13.0000006,0.54416 -1.1666667,0.47211 L 0,118.14265 Z m 363.02733,-18.636475 -1.20868,-1.335583 -3.74265,-1.432059 -3.74266,-1.43206 -13,-0.497156 -13,-0.497155 -3.81722,-1.459962 -3.81723,-1.459962 -2.37407,-2.773561 -2.37406,-2.773561 -1.13196,-3.684566 -1.13196,-3.684566 0.0146,-7.333333 0.0146,-7.333333 1.23096,-3.606493 1.23096,-3.606493 2.78938,-2.789382 2.78938,-2.789382 3.28834,-1.171223 3.28833,-1.171222 13,-0.540449 13,-0.540448 2.07375,-0.6526 2.07374,-0.652599 1.59292,-0.823163 1.59293,-0.823163 1.50883,-1.374529 1.50883,-1.374528 0.73361,0.73361 0.73361,0.733611 -0.27663,4.890893 -0.27663,4.890894 -2.06008,3.183022 -2.06007,3.183022 -0.83182,4.408479 -0.83183,4.40848 0.38373,5.741831 0.38372,5.741832 1.02833,2.87738 1.02833,2.87738 1.51403,2.12262 1.51404,2.122619 v 5.272783 5.272784 l -0.71533,0.243437 -0.71533,0.243437 z M 0,12.404659 V 0 h 21.744332 21.744332 l -0.474298,4.4289262 -0.474298,4.4289263 -0.949779,2.6919595 -0.949778,2.69196 -1.730808,2.269206 -1.730808,2.269206 -2.089447,1.282199 -2.089447,1.282198 -2.333333,0.715679 -2.333334,0.71568 -13,0.531825 L 2.3333334,23.83959 1.1666667,24.324454 0,24.809318 Z"
         id="path2" />
    </g>
  </g>
</svg>
